<svg xmlns="http://www.w3.org/2000/svg" viewBox="0 0 200 200" width="200" height="200">
  <defs>
    <linearGradient id="gassassinoelite" x1="0%" y1="0%" x2="100%" y2="100%">
      <stop offset="0%" stop-color="#f87171"/>
      <stop offset="100%" stop-color="#7f1d1d"/>
    </linearGradient>
  </defs>
  <rect width="200" height="200" rx="18" fill="url(#gassassinoelite)"/>

    <circle cx="100" cy="105" r="80" fill="#1a0000" opacity="0.5"/>
    <path d="M30,80 Q40,30 100,25 Q160,30 170,80 L175,190 H25 Z" fill="#1a1a2e"/>
    <path d="M40,80 Q50,45 100,40 Q150,45 160,80 L165,170 H35 Z" fill="#16213e"/>
    <ellipse cx="100" cy="90" rx="30" ry="35" fill="#0f0f1a"/>
    <circle cx="88" cy="85" r="6" fill="#ff0000"/>
    <circle cx="112" cy="85" r="6" fill="#ff0000"/>
    <circle cx="88" cy="85" r="3" fill="#ff6666"/>
    <circle cx="112" cy="85" r="3" fill="#ff6666"/>
    <line x1="55" y1="125" x2="95" y2="160" stroke="#aaa" stroke-width="5"/>
    <polygon points="55,125 48,115 62,118" fill="#ddd"/>
    <rect x="92" y="157" width="6" height="10" rx="2" fill="#DAA520"/>
    <line x1="145" y1="125" x2="105" y2="160" stroke="#aaa" stroke-width="5"/>
    <polygon points="145,125 152,115 138,118" fill="#ddd"/>
    <rect x="102" y="157" width="6" height="10" rx="2" fill="#DAA520"/>
    <path d="M85,170 Q84,178 85,183" fill="none" stroke="#cc0000" stroke-width="3" stroke-linecap="round"/>
    <path d="M100,172 Q99,182 100,188" fill="none" stroke="#cc0000" stroke-width="3" stroke-linecap="round"/>
    <path d="M115,170 Q114,178 115,183" fill="none" stroke="#cc0000" stroke-width="3" stroke-linecap="round"/>
    <circle cx="35" cy="65" r="4" fill="#6a0dad" opacity="0.7"/>
    <circle cx="165" cy="65" r="4" fill="#6a0dad" opacity="0.7"/>
    <text x="100" y="197" font-size="10" text-anchor="middle" fill="white" opacity="0.8" font-family="sans-serif">Assassino Elite</text>
</svg>